<svg width="121" height="152" viewBox="0 0 121 152" fill="none" xmlns="http://www.w3.org/2000/svg">
<circle cx="119" cy="2" r="2" fill="#0D13D7" fill-opacity="0.22"/>
<circle cx="106" cy="2" r="2" fill="#0D13D7" fill-opacity="0.22"/>
<circle cx="93" cy="2" r="2" fill="#0D13D7" fill-opacity="0.22"/>
<circle cx="80" cy="2" r="2" fill="#0D13D7" fill-opacity="0.22"/>
<circle cx="67" cy="2" r="2" fill="#0D13D7" fill-opacity="0.22"/>
<circle cx="56" cy="2" r="2" fill="#0D13D7" fill-opacity="0.22"/>
<circle cx="119" cy="16" r="2" fill="#0D13D7" fill-opacity="0.22"/>
<circle cx="106" cy="16" r="2" fill="#0D13D7" fill-opacity="0.22"/>
<circle cx="93" cy="16" r="2" fill="#0D13D7" fill-opacity="0.22"/>
<circle cx="80" cy="16" r="2" fill="#0D13D7" fill-opacity="0.22"/>
<circle cx="67" cy="16" r="2" fill="#0D13D7" fill-opacity="0.22"/>
<circle cx="56" cy="16" r="2" fill="#0D13D7" fill-opacity="0.22"/>
<circle cx="119" cy="28" r="2" fill="#0D13D7" fill-opacity="0.22"/>
<circle cx="106" cy="28" r="2" fill="#0D13D7" fill-opacity="0.22"/>
<circle cx="93" cy="28" r="2" fill="#0D13D7" fill-opacity="0.22"/>
<circle cx="80" cy="28" r="2" fill="#0D13D7" fill-opacity="0.22"/>
<circle cx="67" cy="28" r="2" fill="#0D13D7" fill-opacity="0.22"/>
<circle cx="56" cy="28" r="2" fill="#0D13D7" fill-opacity="0.22"/>
<circle cx="119" cy="40" r="2" fill="#0D13D7" fill-opacity="0.22"/>
<circle cx="106" cy="40" r="2" fill="#0D13D7" fill-opacity="0.22"/>
<circle cx="93" cy="40" r="2" fill="#0D13D7" fill-opacity="0.22"/>
<circle cx="80" cy="40" r="2" fill="#0D13D7" fill-opacity="0.22"/>
<circle cx="67" cy="40" r="2" fill="#0D13D7" fill-opacity="0.22"/>
<circle cx="56" cy="40" r="2" fill="#0D13D7" fill-opacity="0.22"/>
<circle cx="119" cy="54" r="2" fill="#0D13D7" fill-opacity="0.22"/>
<circle cx="106" cy="54" r="2" fill="#0D13D7" fill-opacity="0.22"/>
<circle cx="93" cy="54" r="2" fill="#0D13D7" fill-opacity="0.22"/>
<circle cx="80" cy="54" r="2" fill="#0D13D7" fill-opacity="0.22"/>
<circle cx="67" cy="54" r="2" fill="#0D13D7" fill-opacity="0.22"/>
<circle cx="56" cy="54" r="2" fill="#0D13D7" fill-opacity="0.22"/>
<circle cx="119" cy="66" r="2" fill="#0D13D7" fill-opacity="0.22"/>
<circle cx="106" cy="66" r="2" fill="#0D13D7" fill-opacity="0.22"/>
<circle cx="93" cy="66" r="2" fill="#0D13D7" fill-opacity="0.22"/>
<circle cx="80" cy="66" r="2" fill="#0D13D7" fill-opacity="0.22"/>
<circle cx="67" cy="66" r="2" fill="#0D13D7" fill-opacity="0.22"/>
<circle cx="56" cy="66" r="2" fill="#0D13D7" fill-opacity="0.22"/>
<circle cx="119" cy="75" r="2" fill="#0D13D7" fill-opacity="0.22"/>
<circle cx="106" cy="75" r="2" fill="#0D13D7" fill-opacity="0.22"/>
<circle cx="93" cy="75" r="2" fill="#0D13D7" fill-opacity="0.22"/>
<circle cx="80" cy="75" r="2" fill="#0D13D7" fill-opacity="0.22"/>
<circle cx="67" cy="75" r="2" fill="#0D13D7" fill-opacity="0.22"/>
<circle cx="56" cy="75" r="2" fill="#0D13D7" fill-opacity="0.22"/>
<circle cx="119" cy="89" r="2" fill="#0D13D7" fill-opacity="0.22"/>
<circle cx="106" cy="89" r="2" fill="#0D13D7" fill-opacity="0.22"/>
<circle cx="93" cy="89" r="2" fill="#0D13D7" fill-opacity="0.22"/>
<circle cx="80" cy="89" r="2" fill="#0D13D7" fill-opacity="0.22"/>
<circle cx="67" cy="89" r="2" fill="#0D13D7" fill-opacity="0.22"/>
<circle cx="56" cy="89" r="2" fill="#0D13D7" fill-opacity="0.22"/>
<circle cx="119" cy="101" r="2" fill="#0D13D7" fill-opacity="0.22"/>
<circle cx="106" cy="101" r="2" fill="#0D13D7" fill-opacity="0.22"/>
<circle cx="93" cy="101" r="2" fill="#0D13D7" fill-opacity="0.22"/>
<circle cx="80" cy="101" r="2" fill="#0D13D7" fill-opacity="0.22"/>
<circle cx="67" cy="101" r="2" fill="#0D13D7" fill-opacity="0.22"/>
<circle cx="56" cy="101" r="2" fill="#0D13D7" fill-opacity="0.22"/>
<circle cx="119" cy="113" r="2" fill="#0D13D7" fill-opacity="0.22"/>
<circle cx="106" cy="113" r="2" fill="#0D13D7" fill-opacity="0.22"/>
<circle cx="93" cy="113" r="2" fill="#0D13D7" fill-opacity="0.22"/>
<circle cx="80" cy="113" r="2" fill="#0D13D7" fill-opacity="0.22"/>
<circle cx="67" cy="113" r="2" fill="#0D13D7" fill-opacity="0.22"/>
<circle cx="56" cy="113" r="2" fill="#0D13D7" fill-opacity="0.22"/>
<circle cx="119" cy="127" r="2" fill="#0D13D7" fill-opacity="0.22"/>
<circle cx="106" cy="127" r="2" fill="#0D13D7" fill-opacity="0.22"/>
<circle cx="93" cy="127" r="2" fill="#0D13D7" fill-opacity="0.22"/>
<circle cx="80" cy="127" r="2" fill="#0D13D7" fill-opacity="0.22"/>
<circle cx="67" cy="127" r="2" fill="#0D13D7" fill-opacity="0.22"/>
<circle cx="56" cy="127" r="2" fill="#0D13D7" fill-opacity="0.22"/>
<circle cx="119" cy="139" r="2" fill="#0D13D7" fill-opacity="0.22"/>
<circle cx="106" cy="139" r="2" fill="#0D13D7" fill-opacity="0.22"/>
<circle cx="93" cy="139" r="2" fill="#0D13D7" fill-opacity="0.22"/>
<circle cx="80" cy="139" r="2" fill="#0D13D7" fill-opacity="0.22"/>
<circle cx="67" cy="139" r="2" fill="#0D13D7" fill-opacity="0.22"/>
<circle cx="56" cy="139" r="2" fill="#0D13D7" fill-opacity="0.22"/>
<circle cx="119" cy="150" r="2" fill="#0D13D7" fill-opacity="0.22"/>
<circle cx="106" cy="150" r="2" fill="#0D13D7" fill-opacity="0.22"/>
<circle cx="93" cy="150" r="2" fill="#0D13D7" fill-opacity="0.22"/>
<circle cx="80" cy="150" r="2" fill="#0D13D7" fill-opacity="0.22"/>
<circle cx="67" cy="150" r="2" fill="#0D13D7" fill-opacity="0.22"/>
<circle cx="56" cy="150" r="2" fill="#0D13D7" fill-opacity="0.22"/>
<rect y="22" width="108" height="108" rx="20" fill="#0D13D7"/>
<rect y="22" width="108" height="108" rx="20" fill="#0D13D7"/>
</svg>
