<svg width="763" height="647" viewBox="0 0 763 647" fill="none" xmlns="http://www.w3.org/2000/svg">
<path d="M0 0H766V350C766 398.601 726.601 438 678 438H88C39.399 438 0 398.601 0 350V0Z" fill="#0B10B4"/>
<g filter="url(#filter0_d)">
<rect x="203" y="287" width="370" height="259" rx="4" fill="#EADAFE"/>
</g>
<line x1="517" y1="350" x2="517" y2="497" stroke="#C7BCD8" stroke-opacity="0.67" stroke-width="2"/>
<line x1="474" y1="345" x2="474" y2="492" stroke="#C7BCD8" stroke-opacity="0.67" stroke-width="2"/>
<line x1="431" y1="317" x2="431" y2="464" stroke="#C7BCD8" stroke-opacity="0.67" stroke-width="2"/>
<line x1="387" y1="308" x2="387" y2="455" stroke="#C7BCD8" stroke-opacity="0.67" stroke-width="2"/>
<line x1="346" y1="317" x2="346" y2="464" stroke="#C7BCD8" stroke-opacity="0.67" stroke-width="2"/>
<line x1="304" y1="316" x2="304" y2="463" stroke="#C7BCD8" stroke-opacity="0.67" stroke-width="2"/>
<line x1="262" y1="316" x2="262" y2="477" stroke="#C7BCD8" stroke-opacity="0.67" stroke-width="2"/>
<path d="M484.104 451.097L507.104 505.097L477.604 537.597L390.104 555.597H230.104H162.104L136.104 554.097C135.271 552.43 134.104 548.097 136.104 544.097C138.604 539.097 138.104 541.597 146.604 531.097C155.104 520.597 153.104 506.097 160.604 491.597C168.104 477.097 174.604 460.597 177.604 454.597C180.604 448.597 187.604 439.097 192.104 437.097C196.604 435.097 200.104 434.097 204.604 437.097C209.104 440.097 212.604 440.597 216.104 445.097C219.604 449.597 220.104 450.597 227.104 463.097C232.704 473.097 242.104 479.93 246.104 482.097L258.604 488.097C265.604 482.764 280.404 471.297 283.604 468.097C287.604 464.097 286.604 463.597 289.604 457.597C292.604 451.597 296.104 445.097 298.104 443.097C300.104 441.097 310.104 430.097 326.104 443.097C342.104 456.097 347.104 454.097 355.104 457.597C363.104 461.097 377.104 441.097 380.104 437.097C383.104 433.097 389.604 412.597 398.104 399.597C406.604 386.597 428.104 385.597 432.604 386.097C437.104 386.597 450.104 390.597 455.604 396.097C460.004 400.497 465.438 408.93 467.604 412.597L474.104 426.597L484.104 451.097Z" fill="#F854F5" stroke="#F854F5"/>
<path d="M522.96 489.942C547.36 484.742 579.126 541.109 591.96 569.942L133.46 569.942C122.627 569.942 102.36 569.642 107.96 568.442C114.96 566.942 116.46 536.442 154.46 538.942C192.46 541.442 205.46 536.942 226.46 511.442C247.46 485.942 247.96 470.442 275.96 464.442C298.36 459.642 326.96 495.109 338.46 513.442C356.532 527.392 391.522 554.521 393.864 556.794C392.36 552.701 390.635 466.76 445.46 504.942C501.46 543.942 492.46 496.442 522.96 489.942Z" fill="#FFE13C" stroke="#DFD180"/>
<circle r="15" transform="matrix(1 0 0 -1 261 395)" fill="#724FE7"/>
<path d="M262.061 403.061C261.475 403.646 260.525 403.646 259.939 403.061L250.393 393.515C249.808 392.929 249.808 391.979 250.393 391.393C250.979 390.808 251.929 390.808 252.515 391.393L261 399.879L269.485 391.393C270.071 390.808 271.021 390.808 271.607 391.393C272.192 391.979 272.192 392.929 271.607 393.515L262.061 403.061ZM262.5 387L262.5 402L259.5 402L259.5 387L262.5 387Z" fill="white"/>
<path d="M146.5 463C152.833 434 173 376.1 203 376.5C240.5 377 262 404.5 274.5 402C287 399.5 300 396 314.5 352C329 308 361.5 332 373.5 321.5C385.5 311 398 294.5 398 274.5" stroke="#FFE13C" stroke-width="4"/>
<circle cx="581.5" cy="167.5" r="2.5" fill="white"/>
<circle cx="581.5" cy="181.5" r="2.5" fill="white"/>
<circle cx="553.5" cy="167.5" r="2.5" fill="white"/>
<circle cx="553.5" cy="181.5" r="2.5" fill="white"/>
<circle cx="539.5" cy="167.5" r="2.5" fill="white"/>
<circle cx="539.5" cy="181.5" r="2.5" fill="white"/>
<circle cx="567.5" cy="167.5" r="2.5" fill="white"/>
<circle cx="567.5" cy="181.5" r="2.5" fill="white"/>
<circle cx="525.5" cy="167.5" r="2.5" fill="white"/>
<circle cx="525.5" cy="181.5" r="2.5" fill="white"/>
<circle cx="132.5" cy="340.5" r="2.5" fill="white"/>
<circle cx="132.5" cy="354.5" r="2.5" fill="white"/>
<circle cx="104.5" cy="340.5" r="2.5" fill="white"/>
<circle cx="104.5" cy="354.5" r="2.5" fill="white"/>
<circle cx="90.5" cy="340.5" r="2.5" fill="white"/>
<circle cx="90.5" cy="354.5" r="2.5" fill="white"/>
<circle cx="118.5" cy="340.5" r="2.5" fill="white"/>
<circle cx="118.5" cy="354.5" r="2.5" fill="white"/>
<circle cx="76.5" cy="340.5" r="2.5" fill="white"/>
<circle cx="76.5" cy="354.5" r="2.5" fill="white"/>
<circle cx="508.5" cy="601.5" r="2.5" fill="#A490D9" fill-opacity="0.78"/>
<circle cx="508.5" cy="615.5" r="2.5" fill="#A490D9" fill-opacity="0.78"/>
<circle cx="480.5" cy="601.5" r="2.5" fill="#A490D9" fill-opacity="0.78"/>
<circle cx="480.5" cy="615.5" r="2.5" fill="#A490D9" fill-opacity="0.78"/>
<circle cx="466.5" cy="601.5" r="2.5" fill="#A490D9" fill-opacity="0.78"/>
<circle cx="466.5" cy="615.5" r="2.5" fill="#A490D9" fill-opacity="0.78"/>
<circle cx="494.5" cy="601.5" r="2.5" fill="#A490D9" fill-opacity="0.78"/>
<circle cx="494.5" cy="615.5" r="2.5" fill="#A490D9" fill-opacity="0.78"/>
<circle cx="452.5" cy="601.5" r="2.5" fill="#A490D9" fill-opacity="0.78"/>
<circle cx="452.5" cy="615.5" r="2.5" fill="#A490D9" fill-opacity="0.78"/>
<circle cx="658.5" cy="335.5" r="2.5" transform="rotate(-90 658.5 335.5)" fill="white"/>
<circle cx="672.5" cy="335.5" r="2.5" transform="rotate(-90 672.5 335.5)" fill="white"/>
<circle cx="658.5" cy="363.5" r="2.5" transform="rotate(-90 658.5 363.5)" fill="white"/>
<circle cx="672.5" cy="363.5" r="2.5" transform="rotate(-90 672.5 363.5)" fill="white"/>
<circle cx="658.5" cy="377.5" r="2.5" transform="rotate(-90 658.5 377.5)" fill="white"/>
<circle cx="672.5" cy="377.5" r="2.5" transform="rotate(-90 672.5 377.5)" fill="white"/>
<circle cx="658.5" cy="349.5" r="2.5" transform="rotate(-90 658.5 349.5)" fill="white"/>
<circle cx="672.5" cy="349.5" r="2.5" transform="rotate(-90 672.5 349.5)" fill="white"/>
<circle cx="658.5" cy="391.5" r="2.5" transform="rotate(-90 658.5 391.5)" fill="white"/>
<circle cx="672.5" cy="391.5" r="2.5" transform="rotate(-90 672.5 391.5)" fill="white"/>
<rect x="225" y="395" width="7" height="2" fill="#A490D9"/>
<rect x="215" y="395" width="7" height="2" fill="#A490D9"/>
<rect x="204" y="395" width="7" height="2" fill="#A490D9"/>
<rect x="194" y="395" width="7" height="2" fill="#A490D9"/>
<rect x="183" y="395" width="7" height="2" fill="#A490D9"/>
<rect x="173" y="395" width="7" height="2" fill="#A490D9"/>
<rect x="162" y="395" width="7" height="2" fill="#A490D9"/>
<rect x="152" y="395" width="7" height="2" fill="#A490D9"/>
<rect x="141" y="395" width="7" height="2" fill="#A490D9"/>
<rect x="120" y="395" width="7" height="2" fill="#A490D9"/>
<rect x="109" y="395" width="7" height="2" fill="#A490D9"/>
<rect x="99" y="395" width="7" height="2" fill="#A490D9"/>
<rect x="131" y="395" width="7" height="2" fill="#A490D9"/>
<rect x="338" y="395" width="7" height="2" fill="#A490D9"/>
<rect x="328" y="395" width="7" height="2" fill="#A490D9"/>
<rect x="317" y="395" width="7" height="2" fill="#A490D9"/>
<rect x="307" y="395" width="7" height="2" fill="#A490D9"/>
<rect x="296" y="395" width="7" height="2" fill="#A490D9"/>
<rect x="286" y="395" width="7" height="2" fill="#A490D9"/>
<rect x="275" y="395" width="7" height="2" fill="#A490D9"/>
<rect x="265" y="395" width="7" height="2" fill="#A490D9"/>
<rect x="254" y="395" width="7" height="2" fill="#A490D9"/>
<rect x="233" y="395" width="7" height="2" fill="#A490D9"/>
<rect x="244" y="395" width="7" height="2" fill="#A490D9"/>
<g filter="url(#filter1_d)">
<rect x="430" y="216" width="197" height="138" rx="4" fill="#F0E7FC"/>
</g>
<g filter="url(#filter2_d)">
<rect x="264" y="514" width="160" height="115" rx="4" fill="#D8D3DF"/>
</g>
<rect x="388" y="533" width="17" height="81" fill="#9688D3"/>
<rect x="320" y="549" width="17" height="65" fill="#9688D3"/>
<rect x="354" y="584" width="17" height="30" fill="#23D7D3"/>
<rect x="286" y="564" width="17" height="50" fill="#23D7D3"/>
<g filter="url(#filter3_d)">
<rect x="453" y="239" width="120" height="17" rx="8.5" fill="#C9C0D5"/>
</g>
<g filter="url(#filter4_d)">
<rect x="453" y="239" width="51" height="17" rx="8.5" fill="#23D7D3"/>
</g>
<g filter="url(#filter5_d)">
<rect x="453" y="314" width="120" height="17" rx="8.5" fill="#C9C0D5"/>
</g>
<g filter="url(#filter6_d)">
<rect x="453" y="314" width="73" height="17" rx="8.5" fill="#23D7D3"/>
</g>
<g filter="url(#filter7_d)">
<rect x="453" y="277" width="120" height="17" rx="8.5" fill="#C9C0D5"/>
</g>
<g filter="url(#filter8_d)">
<rect x="453" y="277" width="98" height="17" rx="8.5" fill="#FFE13C"/>
</g>
<g filter="url(#filter9_d)">
<circle cx="621.5" cy="221.5" r="22.5" fill="#FFE13C"/>
</g>
<line x1="621" y1="211" x2="621" y2="232" stroke="#E1E1E1" stroke-width="4"/>
<line x1="632" y1="221" x2="611" y2="221" stroke="#E1E1E1" stroke-width="4"/>
<circle cx="573" cy="535" r="21" fill="#724FE7"/>
<path d="M574.906 538.477C574.906 537.859 574.754 537.375 574.449 537.023C574.145 536.672 573.609 536.34 572.844 536.027C572.078 535.715 571.371 535.398 570.723 535.078C570.074 534.758 569.516 534.387 569.047 533.965C568.578 533.543 568.219 533.055 567.969 532.5C567.719 531.945 567.594 531.273 567.594 530.484C567.594 529.164 568.039 528.078 568.93 527.227C569.82 526.367 571.008 525.867 572.492 525.727V523.254H574.355V525.773C575.785 525.984 576.906 526.574 577.719 527.543C578.539 528.504 578.949 529.727 578.949 531.211H574.988C574.988 530.398 574.832 529.773 574.52 529.336C574.207 528.898 573.762 528.68 573.184 528.68C572.668 528.68 572.266 528.844 571.977 529.172C571.695 529.492 571.555 529.938 571.555 530.508C571.555 531.086 571.719 531.547 572.047 531.891C572.375 532.227 572.902 532.551 573.629 532.863C574.355 533.168 575.039 533.488 575.68 533.824C576.328 534.152 576.887 534.527 577.355 534.949C577.824 535.371 578.191 535.863 578.457 536.426C578.723 536.988 578.855 537.664 578.855 538.453C578.855 539.789 578.43 540.879 577.578 541.723C576.734 542.566 575.582 543.059 574.121 543.199V545.555H572.258V543.188C570.555 543.008 569.246 542.426 568.332 541.441C567.426 540.449 566.973 539.145 566.973 537.527H570.922C570.922 538.418 571.117 539.098 571.508 539.566C571.906 540.027 572.469 540.258 573.195 540.258C573.727 540.258 574.145 540.102 574.449 539.789C574.754 539.469 574.906 539.031 574.906 538.477Z" fill="white"/>
<circle cx="345" cy="327" r="21" fill="#23D7D3"/>
<path d="M346.061 315.939C345.475 315.354 344.525 315.354 343.939 315.939L334.393 325.485C333.808 326.071 333.808 327.021 334.393 327.607C334.979 328.192 335.929 328.192 336.515 327.607L345 319.121L353.485 327.607C354.071 328.192 355.021 328.192 355.607 327.607C356.192 327.021 356.192 326.071 355.607 325.485L346.061 315.939ZM346.5 338L346.5 317L343.5 317L343.5 338L346.5 338Z" fill="white"/>
<g filter="url(#filter10_d)">
<circle cx="589" cy="434" r="52" fill="#3E36FC"/>
</g>
<path d="M619 488L603.5 443.5H650.5C647.7 474.3 628.333 486 619 488Z" fill="#23D7D3" stroke="#23D7D3"/>
<g filter="url(#filter11_d)">
<circle cx="206" cy="257" r="73" fill="#2F26FE"/>
</g>
<path d="M290.106 241.447L206 258.968L217.09 174C272.111 186.329 288.693 224.102 290.106 241.447Z" fill="#6D4EE4" stroke="#5A4AD9"/>
<defs>
<filter id="filter0_d" x="191" y="279" width="394" height="283" filterUnits="userSpaceOnUse" color-interpolation-filters="sRGB">
<feFlood flood-opacity="0" result="BackgroundImageFix"/>
<feColorMatrix in="SourceAlpha" type="matrix" values="0 0 0 0 0 0 0 0 0 0 0 0 0 0 0 0 0 0 127 0"/>
<feOffset dy="4"/>
<feGaussianBlur stdDeviation="6"/>
<feColorMatrix type="matrix" values="0 0 0 0 0 0 0 0 0 0 0 0 0 0 0 0 0 0 0.11 0"/>
<feBlend mode="normal" in2="BackgroundImageFix" result="effect1_dropShadow"/>
<feBlend mode="normal" in="SourceGraphic" in2="effect1_dropShadow" result="shape"/>
</filter>
<filter id="filter1_d" x="416" y="206" width="225" height="166" filterUnits="userSpaceOnUse" color-interpolation-filters="sRGB">
<feFlood flood-opacity="0" result="BackgroundImageFix"/>
<feColorMatrix in="SourceAlpha" type="matrix" values="0 0 0 0 0 0 0 0 0 0 0 0 0 0 0 0 0 0 127 0"/>
<feOffset dy="4"/>
<feGaussianBlur stdDeviation="7"/>
<feColorMatrix type="matrix" values="0 0 0 0 0 0 0 0 0 0 0 0 0 0 0 0 0 0 0.21 0"/>
<feBlend mode="normal" in2="BackgroundImageFix" result="effect1_dropShadow"/>
<feBlend mode="normal" in="SourceGraphic" in2="effect1_dropShadow" result="shape"/>
</filter>
<filter id="filter2_d" x="250" y="504" width="188" height="143" filterUnits="userSpaceOnUse" color-interpolation-filters="sRGB">
<feFlood flood-opacity="0" result="BackgroundImageFix"/>
<feColorMatrix in="SourceAlpha" type="matrix" values="0 0 0 0 0 0 0 0 0 0 0 0 0 0 0 0 0 0 127 0"/>
<feOffset dy="4"/>
<feGaussianBlur stdDeviation="7"/>
<feColorMatrix type="matrix" values="0 0 0 0 0 0 0 0 0 0 0 0 0 0 0 0 0 0 0.21 0"/>
<feBlend mode="normal" in2="BackgroundImageFix" result="effect1_dropShadow"/>
<feBlend mode="normal" in="SourceGraphic" in2="effect1_dropShadow" result="shape"/>
</filter>
<filter id="filter3_d" x="444" y="234" width="138" height="35" filterUnits="userSpaceOnUse" color-interpolation-filters="sRGB">
<feFlood flood-opacity="0" result="BackgroundImageFix"/>
<feColorMatrix in="SourceAlpha" type="matrix" values="0 0 0 0 0 0 0 0 0 0 0 0 0 0 0 0 0 0 127 0"/>
<feOffset dy="4"/>
<feGaussianBlur stdDeviation="4.5"/>
<feColorMatrix type="matrix" values="0 0 0 0 0 0 0 0 0 0 0 0 0 0 0 0 0 0 0.15 0"/>
<feBlend mode="normal" in2="BackgroundImageFix" result="effect1_dropShadow"/>
<feBlend mode="normal" in="SourceGraphic" in2="effect1_dropShadow" result="shape"/>
</filter>
<filter id="filter4_d" x="444" y="234" width="69" height="35" filterUnits="userSpaceOnUse" color-interpolation-filters="sRGB">
<feFlood flood-opacity="0" result="BackgroundImageFix"/>
<feColorMatrix in="SourceAlpha" type="matrix" values="0 0 0 0 0 0 0 0 0 0 0 0 0 0 0 0 0 0 127 0"/>
<feOffset dy="4"/>
<feGaussianBlur stdDeviation="4.5"/>
<feColorMatrix type="matrix" values="0 0 0 0 0 0 0 0 0 0 0 0 0 0 0 0 0 0 0.15 0"/>
<feBlend mode="normal" in2="BackgroundImageFix" result="effect1_dropShadow"/>
<feBlend mode="normal" in="SourceGraphic" in2="effect1_dropShadow" result="shape"/>
</filter>
<filter id="filter5_d" x="444" y="309" width="138" height="35" filterUnits="userSpaceOnUse" color-interpolation-filters="sRGB">
<feFlood flood-opacity="0" result="BackgroundImageFix"/>
<feColorMatrix in="SourceAlpha" type="matrix" values="0 0 0 0 0 0 0 0 0 0 0 0 0 0 0 0 0 0 127 0"/>
<feOffset dy="4"/>
<feGaussianBlur stdDeviation="4.5"/>
<feColorMatrix type="matrix" values="0 0 0 0 0 0 0 0 0 0 0 0 0 0 0 0 0 0 0.15 0"/>
<feBlend mode="normal" in2="BackgroundImageFix" result="effect1_dropShadow"/>
<feBlend mode="normal" in="SourceGraphic" in2="effect1_dropShadow" result="shape"/>
</filter>
<filter id="filter6_d" x="444" y="309" width="91" height="35" filterUnits="userSpaceOnUse" color-interpolation-filters="sRGB">
<feFlood flood-opacity="0" result="BackgroundImageFix"/>
<feColorMatrix in="SourceAlpha" type="matrix" values="0 0 0 0 0 0 0 0 0 0 0 0 0 0 0 0 0 0 127 0"/>
<feOffset dy="4"/>
<feGaussianBlur stdDeviation="4.5"/>
<feColorMatrix type="matrix" values="0 0 0 0 0 0 0 0 0 0 0 0 0 0 0 0 0 0 0.15 0"/>
<feBlend mode="normal" in2="BackgroundImageFix" result="effect1_dropShadow"/>
<feBlend mode="normal" in="SourceGraphic" in2="effect1_dropShadow" result="shape"/>
</filter>
<filter id="filter7_d" x="444" y="272" width="138" height="35" filterUnits="userSpaceOnUse" color-interpolation-filters="sRGB">
<feFlood flood-opacity="0" result="BackgroundImageFix"/>
<feColorMatrix in="SourceAlpha" type="matrix" values="0 0 0 0 0 0 0 0 0 0 0 0 0 0 0 0 0 0 127 0"/>
<feOffset dy="4"/>
<feGaussianBlur stdDeviation="4.5"/>
<feColorMatrix type="matrix" values="0 0 0 0 0 0 0 0 0 0 0 0 0 0 0 0 0 0 0.15 0"/>
<feBlend mode="normal" in2="BackgroundImageFix" result="effect1_dropShadow"/>
<feBlend mode="normal" in="SourceGraphic" in2="effect1_dropShadow" result="shape"/>
</filter>
<filter id="filter8_d" x="444" y="272" width="116" height="35" filterUnits="userSpaceOnUse" color-interpolation-filters="sRGB">
<feFlood flood-opacity="0" result="BackgroundImageFix"/>
<feColorMatrix in="SourceAlpha" type="matrix" values="0 0 0 0 0 0 0 0 0 0 0 0 0 0 0 0 0 0 127 0"/>
<feOffset dy="4"/>
<feGaussianBlur stdDeviation="4.5"/>
<feColorMatrix type="matrix" values="0 0 0 0 0 0 0 0 0 0 0 0 0 0 0 0 0 0 0.15 0"/>
<feBlend mode="normal" in2="BackgroundImageFix" result="effect1_dropShadow"/>
<feBlend mode="normal" in="SourceGraphic" in2="effect1_dropShadow" result="shape"/>
</filter>
<filter id="filter9_d" x="595" y="199" width="53" height="53" filterUnits="userSpaceOnUse" color-interpolation-filters="sRGB">
<feFlood flood-opacity="0" result="BackgroundImageFix"/>
<feColorMatrix in="SourceAlpha" type="matrix" values="0 0 0 0 0 0 0 0 0 0 0 0 0 0 0 0 0 0 127 0"/>
<feOffset dy="4"/>
<feGaussianBlur stdDeviation="2"/>
<feColorMatrix type="matrix" values="0 0 0 0 0 0 0 0 0 0 0 0 0 0 0 0 0 0 0.06 0"/>
<feBlend mode="normal" in2="BackgroundImageFix" result="effect1_dropShadow"/>
<feBlend mode="normal" in="SourceGraphic" in2="effect1_dropShadow" result="shape"/>
</filter>
<filter id="filter10_d" x="532" y="381" width="114" height="114" filterUnits="userSpaceOnUse" color-interpolation-filters="sRGB">
<feFlood flood-opacity="0" result="BackgroundImageFix"/>
<feColorMatrix in="SourceAlpha" type="matrix" values="0 0 0 0 0 0 0 0 0 0 0 0 0 0 0 0 0 0 127 0"/>
<feOffset dy="4"/>
<feGaussianBlur stdDeviation="2.5"/>
<feColorMatrix type="matrix" values="0 0 0 0 0 0 0 0 0 0 0 0 0 0 0 0 0 0 0.03 0"/>
<feBlend mode="normal" in2="BackgroundImageFix" result="effect1_dropShadow"/>
<feBlend mode="normal" in="SourceGraphic" in2="effect1_dropShadow" result="shape"/>
</filter>
<filter id="filter11_d" x="128" y="183" width="156" height="156" filterUnits="userSpaceOnUse" color-interpolation-filters="sRGB">
<feFlood flood-opacity="0" result="BackgroundImageFix"/>
<feColorMatrix in="SourceAlpha" type="matrix" values="0 0 0 0 0 0 0 0 0 0 0 0 0 0 0 0 0 0 127 0"/>
<feOffset dy="4"/>
<feGaussianBlur stdDeviation="2.5"/>
<feColorMatrix type="matrix" values="0 0 0 0 0 0 0 0 0 0 0 0 0 0 0 0 0 0 0.03 0"/>
<feBlend mode="normal" in2="BackgroundImageFix" result="effect1_dropShadow"/>
<feBlend mode="normal" in="SourceGraphic" in2="effect1_dropShadow" result="shape"/>
</filter>
</defs>
</svg>
