<svg width="411" height="838" viewBox="0 0 411 838" fill="none" xmlns="http://www.w3.org/2000/svg">
<path d="M0 0H411V644C411 692.601 371.601 732 323 732H88C39.3989 732 0 692.601 0 644V0Z" fill="#0B10B4" fill-opacity="0.88"/>
<path d="M124.525 50.5805L112.525 63.5805V68.5805C115.025 73.5805 124.525 71.0805 124.525 68.5805C124.525 66.0805 127.525 56.5805 130.525 43.5805C133.525 30.5805 119.025 29.0805 116.525 29.5805C114.525 29.9805 107.692 31.7472 104.525 32.5805C90.5253 33.7805 87.6919 38.0805 88.0253 40.0805C88.0253 47.6805 93.3586 48.2472 96.0253 47.5805C98.0253 45.9138 103.025 41.5805 107.025 37.5805C111.025 33.5805 117.692 34.2472 120.525 35.0805C126.925 37.8805 125.859 46.5805 124.525 50.5805Z" fill="#FC5252" stroke="#FB3F3F"/>
<path d="M109.442 60.4127C106.242 61.6127 104.108 59.9127 103.442 58.9127L100.442 56.4127C99.6417 54.4127 100.108 52.246 100.442 51.4127C103.942 47.7461 111.542 40.1127 113.942 38.9127C116.342 37.7127 118.942 39.4127 119.942 40.4127C122.342 41.6127 122.275 45.2461 121.942 46.9127L109.442 60.4127Z" fill="#58009E" stroke="#58009D"/>
<path d="M133 27V36C132.5 36 131.4 35.5 131 33.5C130.6 31.5 129.167 30.3333 128.5 30C127.7 28 124.167 27.1667 122.5 27H133Z" fill="#B707D5" stroke="#B707D5"/>
<path d="M145.27 57.5V43.2812H149.645C150.895 43.2812 152.011 43.5645 152.994 44.1309C153.984 44.6908 154.755 45.4915 155.309 46.5332C155.862 47.5684 156.139 48.7467 156.139 50.0684V50.7227C156.139 52.0443 155.865 53.2194 155.318 54.248C154.778 55.2767 154.013 56.0742 153.023 56.6406C152.034 57.207 150.917 57.4935 149.674 57.5H145.27ZM148.199 45.6543V55.1465H149.615C150.761 55.1465 151.637 54.7721 152.242 54.0234C152.848 53.2747 153.157 52.2038 153.17 50.8105V50.0586C153.17 48.6133 152.87 47.5195 152.271 46.7773C151.673 46.0286 150.797 45.6543 149.645 45.6543H148.199ZM161.97 57.5H159.138V46.9336H161.97V57.5ZM158.972 44.1992C158.972 43.776 159.112 43.4277 159.392 43.1543C159.679 42.8809 160.066 42.7441 160.554 42.7441C161.036 42.7441 161.42 42.8809 161.707 43.1543C161.993 43.4277 162.136 43.776 162.136 44.1992C162.136 44.6289 161.99 44.9805 161.697 45.2539C161.41 45.5273 161.03 45.6641 160.554 45.6641C160.079 45.6641 159.695 45.5273 159.402 45.2539C159.115 44.9805 158.972 44.6289 158.972 44.1992ZM164.794 52.1387C164.794 50.5176 165.178 49.2122 165.946 48.2227C166.721 47.2331 167.763 46.7383 169.071 46.7383C170.23 46.7383 171.132 47.1354 171.777 47.9297L171.894 46.9336H174.452V57.1484C174.452 58.0729 174.241 58.877 173.818 59.5605C173.401 60.2441 172.812 60.765 172.05 61.123C171.288 61.4811 170.396 61.6602 169.374 61.6602C168.599 61.6602 167.844 61.5039 167.109 61.1914C166.373 60.8854 165.816 60.4883 165.439 60L166.689 58.2812C167.392 59.069 168.245 59.4629 169.247 59.4629C169.996 59.4629 170.579 59.2611 170.995 58.8574C171.412 58.4603 171.62 57.8939 171.62 57.1582V56.5918C170.969 57.3275 170.113 57.6953 169.052 57.6953C167.782 57.6953 166.754 57.2005 165.966 56.2109C165.185 55.2148 164.794 53.8965 164.794 52.2559V52.1387ZM167.616 52.3438C167.616 53.3008 167.808 54.0527 168.193 54.5996C168.577 55.14 169.104 55.4102 169.775 55.4102C170.634 55.4102 171.249 55.0879 171.62 54.4434V50C171.243 49.3555 170.634 49.0332 169.794 49.0332C169.117 49.0332 168.583 49.3099 168.193 49.8633C167.808 50.4167 167.616 51.2435 167.616 52.3438ZM180.509 57.5H177.677V46.9336H180.509V57.5ZM177.511 44.1992C177.511 43.776 177.651 43.4277 177.93 43.1543C178.217 42.8809 178.604 42.7441 179.093 42.7441C179.574 42.7441 179.958 42.8809 180.245 43.1543C180.531 43.4277 180.675 43.776 180.675 44.1992C180.675 44.6289 180.528 44.9805 180.235 45.2539C179.949 45.5273 179.568 45.6641 179.093 45.6641C178.617 45.6641 178.233 45.5273 177.94 45.2539C177.654 44.9805 177.511 44.6289 177.511 44.1992ZM187.121 44.3359V46.9336H188.928V49.0039H187.121V54.2773C187.121 54.668 187.196 54.9479 187.346 55.1172C187.496 55.2865 187.782 55.3711 188.205 55.3711C188.518 55.3711 188.795 55.3483 189.036 55.3027V57.4414C188.482 57.6107 187.912 57.6953 187.327 57.6953C185.347 57.6953 184.338 56.696 184.299 54.6973V49.0039H182.756V46.9336H184.299V44.3359H187.121ZM197.523 57.5C197.393 57.2461 197.299 56.9303 197.24 56.5527C196.557 57.3145 195.668 57.6953 194.574 57.6953C193.539 57.6953 192.68 57.3958 191.996 56.7969C191.319 56.1979 190.98 55.4427 190.98 54.5312C190.98 53.4115 191.394 52.5521 192.221 51.9531C193.054 51.3542 194.255 51.0514 195.824 51.0449H197.123V50.4395C197.123 49.9512 196.996 49.5605 196.742 49.2676C196.495 48.9746 196.101 48.8281 195.561 48.8281C195.085 48.8281 194.711 48.9421 194.438 49.1699C194.171 49.3978 194.037 49.7103 194.037 50.1074H191.215C191.215 49.4954 191.404 48.929 191.781 48.4082C192.159 47.8874 192.693 47.4805 193.383 47.1875C194.073 46.888 194.848 46.7383 195.707 46.7383C197.009 46.7383 198.041 47.0671 198.803 47.7246C199.571 48.3757 199.955 49.2936 199.955 50.4785V55.0586C199.962 56.0612 200.102 56.8197 200.375 57.334V57.5H197.523ZM195.189 55.5371C195.606 55.5371 195.99 55.446 196.342 55.2637C196.693 55.0749 196.954 54.8242 197.123 54.5117V52.6953H196.068C194.656 52.6953 193.904 53.1836 193.812 54.1602L193.803 54.3262C193.803 54.6777 193.926 54.9674 194.174 55.1953C194.421 55.4232 194.76 55.5371 195.189 55.5371ZM206.002 57.5H203.17V42.5H206.002V57.5ZM223.329 54.5703H218.192L217.216 57.5H214.1L219.393 43.2812H222.108L227.43 57.5H224.315L223.329 54.5703ZM218.983 52.1973H222.538L220.751 46.875L218.983 52.1973ZM229.063 52.1387C229.063 50.5176 229.447 49.2122 230.215 48.2227C230.99 47.2331 232.032 46.7383 233.34 46.7383C234.499 46.7383 235.401 47.1354 236.045 47.9297L236.162 46.9336H238.721V57.1484C238.721 58.0729 238.51 58.877 238.086 59.5605C237.67 60.2441 237.08 60.765 236.319 61.123C235.557 61.4811 234.665 61.6602 233.643 61.6602C232.868 61.6602 232.113 61.5039 231.377 61.1914C230.642 60.8854 230.085 60.4883 229.707 60L230.957 58.2812C231.661 59.069 232.513 59.4629 233.516 59.4629C234.265 59.4629 234.847 59.2611 235.264 58.8574C235.681 58.4603 235.889 57.8939 235.889 57.1582V56.5918C235.238 57.3275 234.382 57.6953 233.321 57.6953C232.051 57.6953 231.023 57.2005 230.235 56.2109C229.454 55.2148 229.063 53.8965 229.063 52.2559V52.1387ZM231.885 52.3438C231.885 53.3008 232.077 54.0527 232.461 54.5996C232.845 55.14 233.373 55.4102 234.043 55.4102C234.903 55.4102 235.518 55.0879 235.889 54.4434V50C235.511 49.3555 234.903 49.0332 234.063 49.0332C233.386 49.0332 232.852 49.3099 232.461 49.8633C232.077 50.4167 231.885 51.2435 231.885 52.3438ZM246.662 57.6953C245.113 57.6953 243.85 57.2201 242.873 56.2695C241.903 55.319 241.418 54.0527 241.418 52.4707V52.1973C241.418 51.1361 241.623 50.1888 242.033 49.3555C242.443 48.5156 243.023 47.8711 243.771 47.4219C244.527 46.9661 245.386 46.7383 246.35 46.7383C247.795 46.7383 248.931 47.194 249.758 48.1055C250.591 49.0169 251.008 50.3092 251.008 51.9824V53.1348H244.279C244.37 53.8249 244.644 54.3783 245.1 54.7949C245.562 55.2116 246.145 55.4199 246.848 55.4199C247.935 55.4199 248.785 55.026 249.396 54.2383L250.783 55.791C250.36 56.39 249.787 56.8587 249.064 57.1973C248.342 57.5293 247.541 57.6953 246.662 57.6953ZM246.34 49.0234C245.78 49.0234 245.324 49.2122 244.973 49.5898C244.628 49.9674 244.406 50.5078 244.309 51.2109H248.234V50.9863C248.221 50.3613 248.052 49.8796 247.727 49.541C247.401 49.196 246.939 49.0234 246.34 49.0234ZM256.117 46.9336L256.205 48.1543C256.96 47.2103 257.972 46.7383 259.242 46.7383C260.362 46.7383 261.195 47.0671 261.742 47.7246C262.289 48.3822 262.569 49.3652 262.582 50.6738V57.5H259.759V50.7422C259.759 50.1432 259.629 49.7103 259.369 49.4434C259.108 49.1699 258.675 49.0332 258.07 49.0332C257.276 49.0332 256.68 49.3717 256.283 50.0488V57.5H253.461V46.9336H256.117ZM270.025 55.4199C270.545 55.4199 270.969 55.2767 271.294 54.9902C271.62 54.7038 271.789 54.3229 271.802 53.8477H274.448C274.442 54.5638 274.247 55.2214 273.863 55.8203C273.478 56.4128 272.951 56.875 272.28 57.207C271.616 57.5326 270.881 57.6953 270.073 57.6953C268.563 57.6953 267.372 57.2168 266.499 56.2598C265.627 55.2962 265.191 53.9681 265.191 52.2754V52.0898C265.191 50.4622 265.624 49.1634 266.489 48.1934C267.355 47.2233 268.543 46.7383 270.054 46.7383C271.376 46.7383 272.433 47.1159 273.228 47.8711C274.029 48.6198 274.435 49.6191 274.448 50.8691H271.802C271.789 50.3223 271.62 49.8796 271.294 49.541C270.969 49.196 270.539 49.0234 270.005 49.0234C269.348 49.0234 268.849 49.2643 268.511 49.7461C268.179 50.2214 268.013 50.9961 268.013 52.0703V52.3633C268.013 53.4505 268.179 54.2318 268.511 54.707C268.843 55.1823 269.348 55.4199 270.025 55.4199ZM280.905 53.5059L282.858 46.9336H285.886L281.637 59.1406L281.403 59.6973C280.772 61.0775 279.73 61.7676 278.278 61.7676C277.868 61.7676 277.451 61.7057 277.028 61.582V59.4434L277.458 59.4531C277.992 59.4531 278.389 59.3717 278.649 59.209C278.916 59.0462 279.124 58.776 279.274 58.3984L279.606 57.5293L275.905 46.9336H278.942L280.905 53.5059Z" fill="white"/>
<g filter="url(#filter0_d)">
<rect x="85.9075" y="592.246" width="246.401" height="172.481" rx="4" fill="#EADAFE"/>
</g>
<line x1="295.349" y1="634.2" x2="295.349" y2="732.095" stroke="#C7BCD8" stroke-opacity="0.67" stroke-width="2"/>
<line x1="266.713" y1="630.871" x2="266.713" y2="728.765" stroke="#C7BCD8" stroke-opacity="0.67" stroke-width="2"/>
<line x1="238.078" y1="612.224" x2="238.078" y2="710.119" stroke="#C7BCD8" stroke-opacity="0.67" stroke-width="2"/>
<line x1="208.776" y1="606.231" x2="208.776" y2="704.125" stroke="#C7BCD8" stroke-opacity="0.67" stroke-width="2"/>
<line x1="181.472" y1="612.224" x2="181.472" y2="710.119" stroke="#C7BCD8" stroke-opacity="0.67" stroke-width="2"/>
<line x1="153.502" y1="611.558" x2="153.502" y2="709.453" stroke="#C7BCD8" stroke-opacity="0.67" stroke-width="2"/>
<line x1="125.532" y1="611.558" x2="125.532" y2="718.776" stroke="#C7BCD8" stroke-opacity="0.67" stroke-width="2"/>
<path d="M273.108 701.526L288.425 737.487L268.78 759.13L210.509 771.117H103.957H58.6729L41.3582 770.118C40.8033 769.009 40.0263 766.123 41.3582 763.459C43.0231 760.129 42.6901 761.794 48.3507 754.802C54.0112 747.809 52.6793 738.153 57.6739 728.497C62.6686 718.84 66.9972 707.852 68.9951 703.857C70.9929 699.861 75.6545 693.534 78.6513 692.203C81.6481 690.871 83.9789 690.205 86.9757 692.203C89.9724 694.2 92.3033 694.533 94.6341 697.53C96.9649 700.527 97.2979 701.193 101.96 709.517C105.689 716.177 111.949 720.727 114.613 722.17L122.937 726.166C127.599 722.614 137.455 714.978 139.586 712.847C142.249 710.183 141.583 709.85 143.581 705.854C145.579 701.859 147.91 697.53 149.242 696.198C150.574 694.866 157.233 687.541 167.888 696.198C178.544 704.856 181.873 703.524 187.201 705.854C192.528 708.185 201.852 694.866 203.85 692.203C205.847 689.539 210.176 675.887 215.837 667.23C221.497 658.572 235.815 657.906 238.812 658.239C241.809 658.572 250.466 661.236 254.129 664.899C257.059 667.829 260.677 673.445 262.12 675.887L266.449 685.21L273.108 701.526Z" fill="#F854F5" stroke="#F854F5"/>
<path d="M298.984 727.395C315.233 723.932 336.388 761.469 344.934 780.671L39.5972 780.671C32.3828 780.671 18.8863 780.471 22.6156 779.672C27.2772 778.673 28.2761 758.361 53.5822 760.026C78.8882 761.691 87.5455 758.694 101.53 741.713C115.515 724.731 115.848 714.409 134.495 710.413C149.412 707.216 168.458 730.835 176.117 743.044C188.152 752.335 211.453 770.401 213.013 771.914C212.011 769.189 210.862 711.957 247.373 737.384C284.666 763.356 278.673 731.723 298.984 727.395Z" fill="#FFE13C" stroke="#DFD180"/>
<circle r="9.98922" transform="matrix(1 0 0 -1 124.532 664.168)" fill="#724FE7"/>
<path d="M125.593 669.89C125.007 670.476 124.057 670.476 123.472 669.89L113.926 660.344C113.34 659.759 113.34 658.809 113.926 658.223C114.511 657.637 115.461 657.637 116.047 658.223L124.532 666.708L133.018 658.223C133.603 657.637 134.553 657.637 135.139 658.223C135.725 658.809 135.725 659.759 135.139 660.344L125.593 669.89ZM126.032 658.841L126.032 668.83L123.032 668.83L123.032 658.841L126.032 658.841Z" fill="white"/>
<path d="M48.2812 709.453C52.4989 690.14 65.9289 651.582 85.9073 651.848C110.88 652.181 125.198 670.495 133.523 668.83C141.847 667.165 150.504 664.834 160.161 635.532C169.817 606.231 191.46 622.213 199.452 615.221C207.443 608.228 215.767 597.24 215.767 583.921" stroke="#FFE13C" stroke-width="4"/>
<circle cx="337.969" cy="512.665" r="1.66487" fill="white"/>
<circle cx="337.969" cy="521.988" r="1.66487" fill="white"/>
<circle cx="319.322" cy="512.665" r="1.66487" fill="white"/>
<circle cx="319.322" cy="521.988" r="1.66487" fill="white"/>
<circle cx="309.999" cy="512.665" r="1.66487" fill="white"/>
<circle cx="309.999" cy="521.988" r="1.66487" fill="white"/>
<circle cx="328.646" cy="512.665" r="1.66487" fill="white"/>
<circle cx="328.646" cy="521.988" r="1.66487" fill="white"/>
<circle cx="300.676" cy="512.665" r="1.66487" fill="white"/>
<circle cx="300.676" cy="521.988" r="1.66487" fill="white"/>
<circle cx="38.9578" cy="627.874" r="1.66487" fill="white"/>
<circle cx="38.9578" cy="637.197" r="1.66487" fill="white"/>
<circle cx="20.3116" cy="627.874" r="1.66487" fill="white"/>
<circle cx="20.3116" cy="637.197" r="1.66487" fill="white"/>
<circle cx="10.9881" cy="627.874" r="1.66487" fill="white"/>
<circle cx="10.9881" cy="637.197" r="1.66487" fill="white"/>
<circle cx="29.6346" cy="627.874" r="1.66487" fill="white"/>
<circle cx="29.6346" cy="637.197" r="1.66487" fill="white"/>
<circle cx="1.66511" cy="627.874" r="1.66487" fill="white"/>
<circle cx="1.66487" cy="637.197" r="1.66487" fill="white"/>
<circle cx="289.355" cy="801.686" r="1.66487" fill="#A490D9" fill-opacity="0.78"/>
<circle cx="289.355" cy="811.01" r="1.66487" fill="#A490D9" fill-opacity="0.78"/>
<circle cx="270.708" cy="801.686" r="1.66487" fill="#A490D9" fill-opacity="0.78"/>
<circle cx="270.708" cy="811.01" r="1.66487" fill="#A490D9" fill-opacity="0.78"/>
<circle cx="261.385" cy="801.686" r="1.66487" fill="#A490D9" fill-opacity="0.78"/>
<circle cx="261.385" cy="811.01" r="1.66487" fill="#A490D9" fill-opacity="0.78"/>
<circle cx="280.031" cy="801.686" r="1.66487" fill="#A490D9" fill-opacity="0.78"/>
<circle cx="280.031" cy="811.01" r="1.66487" fill="#A490D9" fill-opacity="0.78"/>
<circle cx="252.062" cy="801.686" r="1.66487" fill="#A490D9" fill-opacity="0.78"/>
<circle cx="252.062" cy="811.01" r="1.66487" fill="#A490D9" fill-opacity="0.78"/>
<circle cx="389.247" cy="624.544" r="1.66487" transform="rotate(-90 389.247 624.544)" fill="white"/>
<circle cx="398.57" cy="624.544" r="1.66487" transform="rotate(-90 398.57 624.544)" fill="white"/>
<circle cx="389.247" cy="643.191" r="1.66487" transform="rotate(-90 389.247 643.191)" fill="white"/>
<circle cx="398.57" cy="643.191" r="1.66487" transform="rotate(-90 398.57 643.191)" fill="white"/>
<circle cx="389.247" cy="652.514" r="1.66487" transform="rotate(-90 389.247 652.514)" fill="white"/>
<circle cx="398.57" cy="652.514" r="1.66487" transform="rotate(-90 398.57 652.514)" fill="white"/>
<circle cx="389.247" cy="633.867" r="1.66487" transform="rotate(-90 389.247 633.867)" fill="white"/>
<circle cx="398.57" cy="633.867" r="1.66487" transform="rotate(-90 398.57 633.867)" fill="white"/>
<circle cx="389.247" cy="661.837" r="1.66487" transform="rotate(-90 389.247 661.837)" fill="white"/>
<circle cx="398.57" cy="661.837" r="1.66487" transform="rotate(-90 398.57 661.837)" fill="white"/>
<rect x="100.558" y="664.168" width="4.66164" height="1.3319" fill="#A490D9"/>
<rect x="93.8987" y="664.168" width="4.66164" height="1.3319" fill="#A490D9"/>
<rect x="86.5732" y="664.168" width="4.66164" height="1.3319" fill="#A490D9"/>
<rect x="79.9138" y="664.168" width="4.66164" height="1.3319" fill="#A490D9"/>
<rect x="72.5884" y="664.168" width="4.66164" height="1.3319" fill="#A490D9"/>
<rect x="65.929" y="664.168" width="4.66164" height="1.3319" fill="#A490D9"/>
<rect x="58.6035" y="664.168" width="4.66164" height="1.3319" fill="#A490D9"/>
<rect x="51.9441" y="664.168" width="4.66164" height="1.3319" fill="#A490D9"/>
<rect x="44.6187" y="664.168" width="4.66164" height="1.3319" fill="#A490D9"/>
<rect x="30.6335" y="664.168" width="4.66164" height="1.3319" fill="#A490D9"/>
<rect x="23.3081" y="664.168" width="4.66164" height="1.3319" fill="#A490D9"/>
<rect x="16.6487" y="664.168" width="4.66164" height="1.3319" fill="#A490D9"/>
<rect x="37.9592" y="664.168" width="4.66164" height="1.3319" fill="#A490D9"/>
<rect x="175.81" y="664.168" width="4.66164" height="1.3319" fill="#A490D9"/>
<rect x="169.151" y="664.168" width="4.66164" height="1.3319" fill="#A490D9"/>
<rect x="161.825" y="664.168" width="4.66164" height="1.3319" fill="#A490D9"/>
<rect x="155.166" y="664.168" width="4.66164" height="1.3319" fill="#A490D9"/>
<rect x="147.841" y="664.168" width="4.66164" height="1.3319" fill="#A490D9"/>
<rect x="141.181" y="664.168" width="4.66164" height="1.3319" fill="#A490D9"/>
<rect x="133.856" y="664.168" width="4.66164" height="1.3319" fill="#A490D9"/>
<rect x="127.196" y="664.168" width="4.66164" height="1.3319" fill="#A490D9"/>
<rect x="119.871" y="664.168" width="4.66164" height="1.3319" fill="#A490D9"/>
<rect x="105.886" y="664.168" width="4.66164" height="1.3319" fill="#A490D9"/>
<rect x="113.211" y="664.168" width="4.66164" height="1.3319" fill="#A490D9"/>
<g filter="url(#filter1_d)">
<rect x="237.078" y="544.963" width="131.192" height="91.9009" rx="4" fill="#F0E7FC"/>
</g>
<g filter="url(#filter2_d)">
<rect x="126.53" y="743.416" width="106.552" height="76.5841" rx="4" fill="#D8D3DF"/>
</g>
<rect x="209.108" y="756.069" width="11.3211" height="53.9418" fill="#9688D3"/>
<rect x="163.823" y="766.724" width="11.3211" height="43.2866" fill="#9688D3"/>
<rect x="186.465" y="790.032" width="11.3211" height="19.9784" fill="#23D7D3"/>
<rect x="141.181" y="776.713" width="11.3211" height="33.2974" fill="#23D7D3"/>
<g filter="url(#filter3_d)">
<rect x="252.394" y="560.28" width="79.9138" height="11.3211" rx="5.66056" fill="#C9C0D5"/>
</g>
<g filter="url(#filter4_d)">
<rect x="252.394" y="560.28" width="33.9634" height="11.3211" rx="5.66056" fill="#23D7D3"/>
</g>
<g filter="url(#filter5_d)">
<rect x="252.394" y="610.226" width="79.9138" height="11.3211" rx="5.66056" fill="#C9C0D5"/>
</g>
<g filter="url(#filter6_d)">
<rect x="252.394" y="610.226" width="48.6142" height="11.3211" rx="5.66056" fill="#23D7D3"/>
</g>
<g filter="url(#filter7_d)">
<rect x="252.394" y="585.586" width="79.9138" height="11.3211" rx="5.66056" fill="#C9C0D5"/>
</g>
<g filter="url(#filter8_d)">
<rect x="252.394" y="585.586" width="65.2629" height="11.3211" rx="5.66056" fill="#FFE13C"/>
</g>
<g filter="url(#filter9_d)">
<circle cx="364.607" cy="548.626" r="14.9838" fill="#FFE13C"/>
</g>
<line x1="364.942" y1="541.634" x2="364.942" y2="555.619" stroke="#E1E1E1" stroke-width="4"/>
<line x1="371.599" y1="548.961" x2="357.614" y2="548.961" stroke="#E1E1E1" stroke-width="4"/>
<circle cx="332.308" cy="757.401" r="13.9849" fill="#724FE7"/>
<path d="M336.553 765.554C336.553 764.937 336.4 764.453 336.096 764.101C335.791 763.749 335.256 763.417 334.49 763.105C333.725 762.792 333.018 762.476 332.369 762.156C331.721 761.835 331.162 761.464 330.693 761.042C330.225 760.621 329.865 760.132 329.615 759.578C329.365 759.023 329.24 758.351 329.24 757.562C329.24 756.242 329.686 755.156 330.576 754.304C331.467 753.445 332.654 752.945 334.139 752.804V750.331H336.002V752.851C337.432 753.062 338.553 753.652 339.365 754.621C340.186 755.581 340.596 756.804 340.596 758.289H336.635C336.635 757.476 336.479 756.851 336.166 756.414C335.854 755.976 335.408 755.757 334.83 755.757C334.314 755.757 333.912 755.921 333.623 756.249C333.342 756.57 333.201 757.015 333.201 757.585C333.201 758.164 333.365 758.624 333.693 758.968C334.021 759.304 334.549 759.628 335.275 759.941C336.002 760.246 336.686 760.566 337.326 760.902C337.975 761.23 338.533 761.605 339.002 762.027C339.471 762.449 339.838 762.941 340.104 763.503C340.369 764.066 340.502 764.742 340.502 765.531C340.502 766.867 340.076 767.956 339.225 768.8C338.381 769.644 337.229 770.136 335.768 770.277V772.632H333.904V770.265C332.201 770.085 330.893 769.503 329.979 768.519C329.072 767.527 328.619 766.222 328.619 764.605H332.568C332.568 765.496 332.764 766.175 333.154 766.644C333.553 767.105 334.115 767.335 334.842 767.335C335.373 767.335 335.791 767.179 336.096 766.867C336.4 766.546 336.553 766.109 336.553 765.554Z" fill="white"/>
<circle cx="180.472" cy="618.884" r="13.9849" fill="#23D7D3"/>
<path d="M181.533 611.163C180.947 610.578 179.997 610.578 179.411 611.163L169.865 620.709C169.28 621.295 169.28 622.245 169.865 622.831C170.451 623.417 171.401 623.417 171.987 622.831L180.472 614.345L188.957 622.831C189.543 623.417 190.493 623.417 191.079 622.831C191.664 622.245 191.664 621.295 191.079 620.709L181.533 611.163ZM181.972 626.209L181.972 612.224L178.972 612.224L178.972 626.209L181.972 626.209Z" fill="white"/>
<g filter="url(#filter10_d)">
<circle cx="342.963" cy="690.14" r="34.6293" fill="#3E36FC"/>
</g>
<path d="M362.942 726.101L352.62 696.467H383.919C382.055 716.978 369.157 724.769 362.942 726.101Z" fill="#23D7D3" stroke="#23D7D3"/>
<g filter="url(#filter11_d)">
<circle cx="87.9052" cy="572.267" r="48.6142" fill="#2F26FE"/>
</g>
<path d="M143.915 561.91L87.905 573.578L95.2902 516.994C131.931 525.204 142.974 550.359 143.915 561.91Z" fill="#6D4EE4" stroke="#5A4AD9"/>
<defs>
<filter id="filter0_d" x="73.9075" y="584.246" width="270.401" height="196.481" filterUnits="userSpaceOnUse" color-interpolation-filters="sRGB">
<feFlood flood-opacity="0" result="BackgroundImageFix"/>
<feColorMatrix in="SourceAlpha" type="matrix" values="0 0 0 0 0 0 0 0 0 0 0 0 0 0 0 0 0 0 127 0"/>
<feOffset dy="4"/>
<feGaussianBlur stdDeviation="6"/>
<feColorMatrix type="matrix" values="0 0 0 0 0 0 0 0 0 0 0 0 0 0 0 0 0 0 0.11 0"/>
<feBlend mode="normal" in2="BackgroundImageFix" result="effect1_dropShadow"/>
<feBlend mode="normal" in="SourceGraphic" in2="effect1_dropShadow" result="shape"/>
</filter>
<filter id="filter1_d" x="223.078" y="534.963" width="159.192" height="119.901" filterUnits="userSpaceOnUse" color-interpolation-filters="sRGB">
<feFlood flood-opacity="0" result="BackgroundImageFix"/>
<feColorMatrix in="SourceAlpha" type="matrix" values="0 0 0 0 0 0 0 0 0 0 0 0 0 0 0 0 0 0 127 0"/>
<feOffset dy="4"/>
<feGaussianBlur stdDeviation="7"/>
<feColorMatrix type="matrix" values="0 0 0 0 0 0 0 0 0 0 0 0 0 0 0 0 0 0 0.21 0"/>
<feBlend mode="normal" in2="BackgroundImageFix" result="effect1_dropShadow"/>
<feBlend mode="normal" in="SourceGraphic" in2="effect1_dropShadow" result="shape"/>
</filter>
<filter id="filter2_d" x="112.53" y="733.416" width="134.552" height="104.584" filterUnits="userSpaceOnUse" color-interpolation-filters="sRGB">
<feFlood flood-opacity="0" result="BackgroundImageFix"/>
<feColorMatrix in="SourceAlpha" type="matrix" values="0 0 0 0 0 0 0 0 0 0 0 0 0 0 0 0 0 0 127 0"/>
<feOffset dy="4"/>
<feGaussianBlur stdDeviation="7"/>
<feColorMatrix type="matrix" values="0 0 0 0 0 0 0 0 0 0 0 0 0 0 0 0 0 0 0.21 0"/>
<feBlend mode="normal" in2="BackgroundImageFix" result="effect1_dropShadow"/>
<feBlend mode="normal" in="SourceGraphic" in2="effect1_dropShadow" result="shape"/>
</filter>
<filter id="filter3_d" x="243.394" y="555.28" width="97.9138" height="29.3211" filterUnits="userSpaceOnUse" color-interpolation-filters="sRGB">
<feFlood flood-opacity="0" result="BackgroundImageFix"/>
<feColorMatrix in="SourceAlpha" type="matrix" values="0 0 0 0 0 0 0 0 0 0 0 0 0 0 0 0 0 0 127 0"/>
<feOffset dy="4"/>
<feGaussianBlur stdDeviation="4.5"/>
<feColorMatrix type="matrix" values="0 0 0 0 0 0 0 0 0 0 0 0 0 0 0 0 0 0 0.15 0"/>
<feBlend mode="normal" in2="BackgroundImageFix" result="effect1_dropShadow"/>
<feBlend mode="normal" in="SourceGraphic" in2="effect1_dropShadow" result="shape"/>
</filter>
<filter id="filter4_d" x="243.394" y="555.28" width="51.9634" height="29.3211" filterUnits="userSpaceOnUse" color-interpolation-filters="sRGB">
<feFlood flood-opacity="0" result="BackgroundImageFix"/>
<feColorMatrix in="SourceAlpha" type="matrix" values="0 0 0 0 0 0 0 0 0 0 0 0 0 0 0 0 0 0 127 0"/>
<feOffset dy="4"/>
<feGaussianBlur stdDeviation="4.5"/>
<feColorMatrix type="matrix" values="0 0 0 0 0 0 0 0 0 0 0 0 0 0 0 0 0 0 0.15 0"/>
<feBlend mode="normal" in2="BackgroundImageFix" result="effect1_dropShadow"/>
<feBlend mode="normal" in="SourceGraphic" in2="effect1_dropShadow" result="shape"/>
</filter>
<filter id="filter5_d" x="243.394" y="605.226" width="97.9138" height="29.3211" filterUnits="userSpaceOnUse" color-interpolation-filters="sRGB">
<feFlood flood-opacity="0" result="BackgroundImageFix"/>
<feColorMatrix in="SourceAlpha" type="matrix" values="0 0 0 0 0 0 0 0 0 0 0 0 0 0 0 0 0 0 127 0"/>
<feOffset dy="4"/>
<feGaussianBlur stdDeviation="4.5"/>
<feColorMatrix type="matrix" values="0 0 0 0 0 0 0 0 0 0 0 0 0 0 0 0 0 0 0.15 0"/>
<feBlend mode="normal" in2="BackgroundImageFix" result="effect1_dropShadow"/>
<feBlend mode="normal" in="SourceGraphic" in2="effect1_dropShadow" result="shape"/>
</filter>
<filter id="filter6_d" x="243.394" y="605.226" width="66.6142" height="29.3211" filterUnits="userSpaceOnUse" color-interpolation-filters="sRGB">
<feFlood flood-opacity="0" result="BackgroundImageFix"/>
<feColorMatrix in="SourceAlpha" type="matrix" values="0 0 0 0 0 0 0 0 0 0 0 0 0 0 0 0 0 0 127 0"/>
<feOffset dy="4"/>
<feGaussianBlur stdDeviation="4.5"/>
<feColorMatrix type="matrix" values="0 0 0 0 0 0 0 0 0 0 0 0 0 0 0 0 0 0 0.15 0"/>
<feBlend mode="normal" in2="BackgroundImageFix" result="effect1_dropShadow"/>
<feBlend mode="normal" in="SourceGraphic" in2="effect1_dropShadow" result="shape"/>
</filter>
<filter id="filter7_d" x="243.394" y="580.586" width="97.9138" height="29.3211" filterUnits="userSpaceOnUse" color-interpolation-filters="sRGB">
<feFlood flood-opacity="0" result="BackgroundImageFix"/>
<feColorMatrix in="SourceAlpha" type="matrix" values="0 0 0 0 0 0 0 0 0 0 0 0 0 0 0 0 0 0 127 0"/>
<feOffset dy="4"/>
<feGaussianBlur stdDeviation="4.5"/>
<feColorMatrix type="matrix" values="0 0 0 0 0 0 0 0 0 0 0 0 0 0 0 0 0 0 0.15 0"/>
<feBlend mode="normal" in2="BackgroundImageFix" result="effect1_dropShadow"/>
<feBlend mode="normal" in="SourceGraphic" in2="effect1_dropShadow" result="shape"/>
</filter>
<filter id="filter8_d" x="243.394" y="580.586" width="83.2629" height="29.3211" filterUnits="userSpaceOnUse" color-interpolation-filters="sRGB">
<feFlood flood-opacity="0" result="BackgroundImageFix"/>
<feColorMatrix in="SourceAlpha" type="matrix" values="0 0 0 0 0 0 0 0 0 0 0 0 0 0 0 0 0 0 127 0"/>
<feOffset dy="4"/>
<feGaussianBlur stdDeviation="4.5"/>
<feColorMatrix type="matrix" values="0 0 0 0 0 0 0 0 0 0 0 0 0 0 0 0 0 0 0.15 0"/>
<feBlend mode="normal" in2="BackgroundImageFix" result="effect1_dropShadow"/>
<feBlend mode="normal" in="SourceGraphic" in2="effect1_dropShadow" result="shape"/>
</filter>
<filter id="filter9_d" x="345.623" y="533.642" width="37.9677" height="37.9677" filterUnits="userSpaceOnUse" color-interpolation-filters="sRGB">
<feFlood flood-opacity="0" result="BackgroundImageFix"/>
<feColorMatrix in="SourceAlpha" type="matrix" values="0 0 0 0 0 0 0 0 0 0 0 0 0 0 0 0 0 0 127 0"/>
<feOffset dy="4"/>
<feGaussianBlur stdDeviation="2"/>
<feColorMatrix type="matrix" values="0 0 0 0 0 0 0 0 0 0 0 0 0 0 0 0 0 0 0.06 0"/>
<feBlend mode="normal" in2="BackgroundImageFix" result="effect1_dropShadow"/>
<feBlend mode="normal" in="SourceGraphic" in2="effect1_dropShadow" result="shape"/>
</filter>
<filter id="filter10_d" x="303.334" y="654.511" width="79.2586" height="79.2586" filterUnits="userSpaceOnUse" color-interpolation-filters="sRGB">
<feFlood flood-opacity="0" result="BackgroundImageFix"/>
<feColorMatrix in="SourceAlpha" type="matrix" values="0 0 0 0 0 0 0 0 0 0 0 0 0 0 0 0 0 0 127 0"/>
<feOffset dy="4"/>
<feGaussianBlur stdDeviation="2.5"/>
<feColorMatrix type="matrix" values="0 0 0 0 0 0 0 0 0 0 0 0 0 0 0 0 0 0 0.03 0"/>
<feBlend mode="normal" in2="BackgroundImageFix" result="effect1_dropShadow"/>
<feBlend mode="normal" in="SourceGraphic" in2="effect1_dropShadow" result="shape"/>
</filter>
<filter id="filter11_d" x="34.291" y="522.653" width="107.228" height="107.228" filterUnits="userSpaceOnUse" color-interpolation-filters="sRGB">
<feFlood flood-opacity="0" result="BackgroundImageFix"/>
<feColorMatrix in="SourceAlpha" type="matrix" values="0 0 0 0 0 0 0 0 0 0 0 0 0 0 0 0 0 0 127 0"/>
<feOffset dy="4"/>
<feGaussianBlur stdDeviation="2.5"/>
<feColorMatrix type="matrix" values="0 0 0 0 0 0 0 0 0 0 0 0 0 0 0 0 0 0 0.03 0"/>
<feBlend mode="normal" in2="BackgroundImageFix" result="effect1_dropShadow"/>
<feBlend mode="normal" in="SourceGraphic" in2="effect1_dropShadow" result="shape"/>
</filter>
</defs>
</svg>
