<svg width="199" height="46" viewBox="0 0 199 46" fill="none" xmlns="http://www.w3.org/2000/svg">
<path d="M37.5253 24.5805L25.5253 37.5805V42.5805C28.0252 47.5805 37.5253 45.0805 37.5253 42.5805C37.5253 40.0805 40.5253 30.5805 43.5253 17.5805C46.5253 4.58051 32.0253 3.08051 29.5253 3.58051C27.5253 3.98051 20.6919 5.74717 17.5253 6.58051C3.52525 7.78051 0.691919 12.0805 1.02525 14.0805C1.02525 21.6805 6.35859 22.2472 9.02525 21.5805C11.0253 19.9138 16.0253 15.5805 20.0253 11.5805C24.0253 7.58052 30.6919 8.24718 33.5253 9.08052C39.9253 11.8805 38.8586 20.5805 37.5253 24.5805Z" fill="#FC5252" stroke="#FB3F3F"/>
<path d="M22.4417 34.4127C19.2417 35.6127 17.1084 33.9127 16.4417 32.9127L13.4417 30.4127C12.6417 28.4127 13.1084 26.246 13.4417 25.4127C16.9417 21.7461 24.5417 14.1127 26.9417 12.9127C29.3417 11.7127 31.9417 13.4127 32.9417 14.4127C35.3417 15.6127 35.2751 19.2461 34.9417 20.9127L22.4417 34.4127Z" fill="#58009E" stroke="#58009D"/>
<path d="M46 1V10C45.5 10 44.4 9.5 44 7.5C43.6 5.5 42.1667 4.33333 41.5 4C40.7 2 37.1667 1.16667 35.5 1H46Z" fill="#B707D5" stroke="#B707D5"/>
<path d="M58.2695 31.5V17.2812H62.6445C63.8945 17.2812 65.0111 17.5645 65.9941 18.1309C66.9837 18.6908 67.7552 19.4915 68.3086 20.5332C68.862 21.5684 69.1387 22.7467 69.1387 24.0684V24.7227C69.1387 26.0443 68.8652 27.2194 68.3184 28.248C67.778 29.2767 67.013 30.0742 66.0234 30.6406C65.0339 31.207 63.9173 31.4935 62.6738 31.5H58.2695ZM61.1992 19.6543V29.1465H62.6152C63.7611 29.1465 64.6367 28.7721 65.2422 28.0234C65.8477 27.2747 66.1569 26.2038 66.1699 24.8105V24.0586C66.1699 22.6133 65.8704 21.5195 65.2715 20.7773C64.6725 20.0286 63.7969 19.6543 62.6445 19.6543H61.1992ZM74.9703 31.5H72.1383V20.9336H74.9703V31.5ZM71.9723 18.1992C71.9723 17.776 72.1122 17.4277 72.3922 17.1543C72.6786 16.8809 73.066 16.7441 73.5543 16.7441C74.0361 16.7441 74.4202 16.8809 74.7066 17.1543C74.9931 17.4277 75.1363 17.776 75.1363 18.1992C75.1363 18.6289 74.9898 18.9805 74.6969 19.2539C74.4104 19.5273 74.0296 19.6641 73.5543 19.6641C73.079 19.6641 72.6949 19.5273 72.402 19.2539C72.1155 18.9805 71.9723 18.6289 71.9723 18.1992ZM77.7941 26.1387C77.7941 24.5176 78.1783 23.2122 78.9465 22.2227C79.7212 21.2331 80.7629 20.7383 82.0715 20.7383C83.2303 20.7383 84.132 21.1354 84.7766 21.9297L84.8937 20.9336H87.4523V31.1484C87.4523 32.0729 87.2408 32.877 86.8176 33.5605C86.4009 34.2441 85.8117 34.765 85.05 35.123C84.2883 35.4811 83.3964 35.6602 82.3742 35.6602C81.5995 35.6602 80.8443 35.5039 80.1086 35.1914C79.3729 34.8854 78.8163 34.4883 78.4387 34L79.6887 32.2812C80.3918 33.069 81.2447 33.4629 82.2473 33.4629C82.996 33.4629 83.5786 33.2611 83.9953 32.8574C84.412 32.4603 84.6203 31.8939 84.6203 31.1582V30.5918C83.9693 31.3275 83.1132 31.6953 82.052 31.6953C80.7824 31.6953 79.7538 31.2005 78.966 30.2109C78.1848 29.2148 77.7941 27.8965 77.7941 26.2559V26.1387ZM80.6164 26.3438C80.6164 27.3008 80.8085 28.0527 81.1926 28.5996C81.5767 29.14 82.104 29.4102 82.7746 29.4102C83.634 29.4102 84.2492 29.0879 84.6203 28.4434V24C84.2427 23.3555 83.634 23.0332 82.7941 23.0332C82.1171 23.0332 81.5832 23.3099 81.1926 23.8633C80.8085 24.4167 80.6164 25.2435 80.6164 26.3438ZM93.5086 31.5H90.6766V20.9336H93.5086V31.5ZM90.5105 18.1992C90.5105 17.776 90.6505 17.4277 90.9305 17.1543C91.2169 16.8809 91.6043 16.7441 92.0926 16.7441C92.5743 16.7441 92.9585 16.8809 93.2449 17.1543C93.5314 17.4277 93.6746 17.776 93.6746 18.1992C93.6746 18.6289 93.5281 18.9805 93.2352 19.2539C92.9487 19.5273 92.5678 19.6641 92.0926 19.6641C91.6173 19.6641 91.2332 19.5273 90.9402 19.2539C90.6538 18.9805 90.5105 18.6289 90.5105 18.1992ZM100.121 18.3359V20.9336H101.928V23.0039H100.121V28.2773C100.121 28.668 100.196 28.9479 100.346 29.1172C100.496 29.2865 100.782 29.3711 101.205 29.3711C101.518 29.3711 101.795 29.3483 102.036 29.3027V31.4414C101.482 31.6107 100.912 31.6953 100.327 31.6953C98.3474 31.6953 97.3383 30.696 97.2992 28.6973V23.0039H95.7562V20.9336H97.2992V18.3359H100.121ZM110.523 31.5C110.393 31.2461 110.299 30.9303 110.24 30.5527C109.557 31.3145 108.668 31.6953 107.574 31.6953C106.539 31.6953 105.68 31.3958 104.996 30.7969C104.319 30.1979 103.98 29.4427 103.98 28.5312C103.98 27.4115 104.394 26.5521 105.221 25.9531C106.054 25.3542 107.255 25.0514 108.824 25.0449H110.123V24.4395C110.123 23.9512 109.996 23.5605 109.742 23.2676C109.495 22.9746 109.101 22.8281 108.561 22.8281C108.085 22.8281 107.711 22.9421 107.438 23.1699C107.171 23.3978 107.037 23.7103 107.037 24.1074H104.215C104.215 23.4954 104.404 22.929 104.781 22.4082C105.159 21.8874 105.693 21.4805 106.383 21.1875C107.073 20.888 107.848 20.7383 108.707 20.7383C110.009 20.7383 111.041 21.0671 111.803 21.7246C112.571 22.3757 112.955 23.2936 112.955 24.4785V29.0586C112.962 30.0612 113.102 30.8197 113.375 31.334V31.5H110.523ZM108.189 29.5371C108.606 29.5371 108.99 29.446 109.342 29.2637C109.693 29.0749 109.954 28.8242 110.123 28.5117V26.6953H109.068C107.656 26.6953 106.904 27.1836 106.812 28.1602L106.803 28.3262C106.803 28.6777 106.926 28.9674 107.174 29.1953C107.421 29.4232 107.76 29.5371 108.189 29.5371ZM119.002 31.5H116.17V16.5H119.002V31.5ZM136.329 28.5703H131.192L130.216 31.5H127.1L132.393 17.2812H135.108L140.43 31.5H137.315L136.329 28.5703ZM131.983 26.1973H135.538L133.751 20.875L131.983 26.1973ZM142.063 26.1387C142.063 24.5176 142.447 23.2122 143.215 22.2227C143.99 21.2331 145.032 20.7383 146.34 20.7383C147.499 20.7383 148.401 21.1354 149.045 21.9297L149.162 20.9336H151.721V31.1484C151.721 32.0729 151.51 32.877 151.086 33.5605C150.67 34.2441 150.08 34.765 149.319 35.123C148.557 35.4811 147.665 35.6602 146.643 35.6602C145.868 35.6602 145.113 35.5039 144.377 35.1914C143.642 34.8854 143.085 34.4883 142.707 34L143.957 32.2812C144.661 33.069 145.513 33.4629 146.516 33.4629C147.265 33.4629 147.847 33.2611 148.264 32.8574C148.681 32.4603 148.889 31.8939 148.889 31.1582V30.5918C148.238 31.3275 147.382 31.6953 146.321 31.6953C145.051 31.6953 144.023 31.2005 143.235 30.2109C142.454 29.2148 142.063 27.8965 142.063 26.2559V26.1387ZM144.885 26.3438C144.885 27.3008 145.077 28.0527 145.461 28.5996C145.845 29.14 146.373 29.4102 147.043 29.4102C147.903 29.4102 148.518 29.0879 148.889 28.4434V24C148.511 23.3555 147.903 23.0332 147.063 23.0332C146.386 23.0332 145.852 23.3099 145.461 23.8633C145.077 24.4167 144.885 25.2435 144.885 26.3438ZM159.662 31.6953C158.113 31.6953 156.85 31.2201 155.873 30.2695C154.903 29.319 154.418 28.0527 154.418 26.4707V26.1973C154.418 25.1361 154.623 24.1888 155.033 23.3555C155.443 22.5156 156.023 21.8711 156.771 21.4219C157.527 20.9661 158.386 20.7383 159.35 20.7383C160.795 20.7383 161.931 21.194 162.758 22.1055C163.591 23.0169 164.008 24.3092 164.008 25.9824V27.1348H157.279C157.37 27.8249 157.644 28.3783 158.1 28.7949C158.562 29.2116 159.145 29.4199 159.848 29.4199C160.935 29.4199 161.785 29.026 162.396 28.2383L163.783 29.791C163.36 30.39 162.787 30.8587 162.064 31.1973C161.342 31.5293 160.541 31.6953 159.662 31.6953ZM159.34 23.0234C158.78 23.0234 158.324 23.2122 157.973 23.5898C157.628 23.9674 157.406 24.5078 157.309 25.2109H161.234V24.9863C161.221 24.3613 161.052 23.8796 160.727 23.541C160.401 23.196 159.939 23.0234 159.34 23.0234ZM169.117 20.9336L169.205 22.1543C169.96 21.2103 170.972 20.7383 172.242 20.7383C173.362 20.7383 174.195 21.0671 174.742 21.7246C175.289 22.3822 175.569 23.3652 175.582 24.6738V31.5H172.759V24.7422C172.759 24.1432 172.629 23.7103 172.369 23.4434C172.108 23.1699 171.675 23.0332 171.07 23.0332C170.276 23.0332 169.68 23.3717 169.283 24.0488V31.5H166.461V20.9336H169.117ZM183.025 29.4199C183.545 29.4199 183.969 29.2767 184.294 28.9902C184.62 28.7038 184.789 28.3229 184.802 27.8477H187.448C187.442 28.5638 187.247 29.2214 186.863 29.8203C186.478 30.4128 185.951 30.875 185.28 31.207C184.616 31.5326 183.881 31.6953 183.073 31.6953C181.563 31.6953 180.372 31.2168 179.499 30.2598C178.627 29.2962 178.191 27.9681 178.191 26.2754V26.0898C178.191 24.4622 178.624 23.1634 179.489 22.1934C180.355 21.2233 181.543 20.7383 183.054 20.7383C184.376 20.7383 185.433 21.1159 186.228 21.8711C187.029 22.6198 187.435 23.6191 187.448 24.8691H184.802C184.789 24.3223 184.62 23.8796 184.294 23.541C183.969 23.196 183.539 23.0234 183.005 23.0234C182.348 23.0234 181.849 23.2643 181.511 23.7461C181.179 24.2214 181.013 24.9961 181.013 26.0703V26.3633C181.013 27.4505 181.179 28.2318 181.511 28.707C181.843 29.1823 182.348 29.4199 183.025 29.4199ZM193.905 27.5059L195.858 20.9336H198.886L194.637 33.1406L194.403 33.6973C193.772 35.0775 192.73 35.7676 191.278 35.7676C190.868 35.7676 190.451 35.7057 190.028 35.582V33.4434L190.458 33.4531C190.992 33.4531 191.389 33.3717 191.649 33.209C191.916 33.0462 192.124 32.776 192.274 32.3984L192.606 31.5293L188.905 20.9336H191.942L193.905 27.5059Z" fill="white"/>
</svg>
