<svg width="199" height="46" viewBox="0 0 199 46" fill="none" xmlns="http://www.w3.org/2000/svg">
<path d="M37.5253 24.0805L25.5253 37.0805V42.0805C28.0252 47.0805 37.5253 44.5805 37.5253 42.0805C37.5253 39.5805 40.5253 30.0805 43.5253 17.0805C46.5253 4.08051 32.0253 2.58051 29.5253 3.08051C27.5253 3.48051 20.6919 5.24717 17.5253 6.08051C3.52525 7.28051 0.691919 11.5805 1.02525 13.5805C1.02525 21.1805 6.35859 21.7472 9.02525 21.0805C11.0253 19.4138 16.0253 15.0805 20.0253 11.0805C24.0253 7.08052 30.6919 7.74718 33.5253 8.58052C39.9253 11.3805 38.8586 20.0805 37.5253 24.0805Z" fill="#FC5252" stroke="#FB3F3F"/>
<path d="M22.4417 33.9127C19.2417 35.1127 17.1084 33.4127 16.4417 32.4127L13.4417 29.9127C12.6417 27.9127 13.1084 25.746 13.4417 24.9127C16.9417 21.2461 24.5417 13.6127 26.9417 12.4127C29.3417 11.2127 31.9417 12.9127 32.9417 13.9127C35.3417 15.1127 35.2751 18.7461 34.9417 20.4127L22.4417 33.9127Z" fill="#58009E" stroke="#58009D"/>
<path d="M46 0.5V9.5C45.5 9.5 44.4 9 44 7C43.6 5 42.1667 3.83333 41.5 3.5C40.7 1.5 37.1667 0.666667 35.5 0.5H46Z" fill="#B707D5" stroke="#B707D5"/>
<path d="M58.2695 31V16.7812H62.6445C63.8945 16.7812 65.0111 17.0645 65.9941 17.6309C66.9837 18.1908 67.7552 18.9915 68.3086 20.0332C68.862 21.0684 69.1387 22.2467 69.1387 23.5684V24.2227C69.1387 25.5443 68.8652 26.7194 68.3184 27.748C67.778 28.7767 67.013 29.5742 66.0234 30.1406C65.0339 30.707 63.9173 30.9935 62.6738 31H58.2695ZM61.1992 19.1543V28.6465H62.6152C63.7611 28.6465 64.6367 28.2721 65.2422 27.5234C65.8477 26.7747 66.1569 25.7038 66.1699 24.3105V23.5586C66.1699 22.1133 65.8704 21.0195 65.2715 20.2773C64.6725 19.5286 63.7969 19.1543 62.6445 19.1543H61.1992ZM74.9703 31H72.1383V20.4336H74.9703V31ZM71.9723 17.6992C71.9723 17.276 72.1122 16.9277 72.3922 16.6543C72.6786 16.3809 73.066 16.2441 73.5543 16.2441C74.0361 16.2441 74.4202 16.3809 74.7066 16.6543C74.9931 16.9277 75.1363 17.276 75.1363 17.6992C75.1363 18.1289 74.9898 18.4805 74.6969 18.7539C74.4104 19.0273 74.0296 19.1641 73.5543 19.1641C73.079 19.1641 72.6949 19.0273 72.402 18.7539C72.1155 18.4805 71.9723 18.1289 71.9723 17.6992ZM77.7941 25.6387C77.7941 24.0176 78.1783 22.7122 78.9465 21.7227C79.7212 20.7331 80.7629 20.2383 82.0715 20.2383C83.2303 20.2383 84.132 20.6354 84.7766 21.4297L84.8937 20.4336H87.4523V30.6484C87.4523 31.5729 87.2408 32.377 86.8176 33.0605C86.4009 33.7441 85.8117 34.265 85.05 34.623C84.2883 34.9811 83.3964 35.1602 82.3742 35.1602C81.5995 35.1602 80.8443 35.0039 80.1086 34.6914C79.3729 34.3854 78.8163 33.9883 78.4387 33.5L79.6887 31.7812C80.3918 32.569 81.2447 32.9629 82.2473 32.9629C82.996 32.9629 83.5786 32.7611 83.9953 32.3574C84.412 31.9603 84.6203 31.3939 84.6203 30.6582V30.0918C83.9693 30.8275 83.1132 31.1953 82.052 31.1953C80.7824 31.1953 79.7538 30.7005 78.966 29.7109C78.1848 28.7148 77.7941 27.3965 77.7941 25.7559V25.6387ZM80.6164 25.8438C80.6164 26.8008 80.8085 27.5527 81.1926 28.0996C81.5767 28.64 82.104 28.9102 82.7746 28.9102C83.634 28.9102 84.2492 28.5879 84.6203 27.9434V23.5C84.2427 22.8555 83.634 22.5332 82.7941 22.5332C82.1171 22.5332 81.5832 22.8099 81.1926 23.3633C80.8085 23.9167 80.6164 24.7435 80.6164 25.8438ZM93.5086 31H90.6766V20.4336H93.5086V31ZM90.5105 17.6992C90.5105 17.276 90.6505 16.9277 90.9305 16.6543C91.2169 16.3809 91.6043 16.2441 92.0926 16.2441C92.5743 16.2441 92.9585 16.3809 93.2449 16.6543C93.5314 16.9277 93.6746 17.276 93.6746 17.6992C93.6746 18.1289 93.5281 18.4805 93.2352 18.7539C92.9487 19.0273 92.5678 19.1641 92.0926 19.1641C91.6173 19.1641 91.2332 19.0273 90.9402 18.7539C90.6538 18.4805 90.5105 18.1289 90.5105 17.6992ZM100.121 17.8359V20.4336H101.928V22.5039H100.121V27.7773C100.121 28.168 100.196 28.4479 100.346 28.6172C100.496 28.7865 100.782 28.8711 101.205 28.8711C101.518 28.8711 101.795 28.8483 102.036 28.8027V30.9414C101.482 31.1107 100.912 31.1953 100.327 31.1953C98.3474 31.1953 97.3383 30.196 97.2992 28.1973V22.5039H95.7562V20.4336H97.2992V17.8359H100.121ZM110.523 31C110.393 30.7461 110.299 30.4303 110.24 30.0527C109.557 30.8145 108.668 31.1953 107.574 31.1953C106.539 31.1953 105.68 30.8958 104.996 30.2969C104.319 29.6979 103.98 28.9427 103.98 28.0312C103.98 26.9115 104.394 26.0521 105.221 25.4531C106.054 24.8542 107.255 24.5514 108.824 24.5449H110.123V23.9395C110.123 23.4512 109.996 23.0605 109.742 22.7676C109.495 22.4746 109.101 22.3281 108.561 22.3281C108.085 22.3281 107.711 22.4421 107.438 22.6699C107.171 22.8978 107.037 23.2103 107.037 23.6074H104.215C104.215 22.9954 104.404 22.429 104.781 21.9082C105.159 21.3874 105.693 20.9805 106.383 20.6875C107.073 20.388 107.848 20.2383 108.707 20.2383C110.009 20.2383 111.041 20.5671 111.803 21.2246C112.571 21.8757 112.955 22.7936 112.955 23.9785V28.5586C112.962 29.5612 113.102 30.3197 113.375 30.834V31H110.523ZM108.189 29.0371C108.606 29.0371 108.99 28.946 109.342 28.7637C109.693 28.5749 109.954 28.3242 110.123 28.0117V26.1953H109.068C107.656 26.1953 106.904 26.6836 106.812 27.6602L106.803 27.8262C106.803 28.1777 106.926 28.4674 107.174 28.6953C107.421 28.9232 107.76 29.0371 108.189 29.0371ZM119.002 31H116.17V16H119.002V31ZM136.329 28.0703H131.192L130.216 31H127.1L132.393 16.7812H135.108L140.43 31H137.315L136.329 28.0703ZM131.983 25.6973H135.538L133.751 20.375L131.983 25.6973ZM142.063 25.6387C142.063 24.0176 142.447 22.7122 143.215 21.7227C143.99 20.7331 145.032 20.2383 146.34 20.2383C147.499 20.2383 148.401 20.6354 149.045 21.4297L149.162 20.4336H151.721V30.6484C151.721 31.5729 151.51 32.377 151.086 33.0605C150.67 33.7441 150.08 34.265 149.319 34.623C148.557 34.9811 147.665 35.1602 146.643 35.1602C145.868 35.1602 145.113 35.0039 144.377 34.6914C143.642 34.3854 143.085 33.9883 142.707 33.5L143.957 31.7812C144.661 32.569 145.513 32.9629 146.516 32.9629C147.265 32.9629 147.847 32.7611 148.264 32.3574C148.681 31.9603 148.889 31.3939 148.889 30.6582V30.0918C148.238 30.8275 147.382 31.1953 146.321 31.1953C145.051 31.1953 144.023 30.7005 143.235 29.7109C142.454 28.7148 142.063 27.3965 142.063 25.7559V25.6387ZM144.885 25.8438C144.885 26.8008 145.077 27.5527 145.461 28.0996C145.845 28.64 146.373 28.9102 147.043 28.9102C147.903 28.9102 148.518 28.5879 148.889 27.9434V23.5C148.511 22.8555 147.903 22.5332 147.063 22.5332C146.386 22.5332 145.852 22.8099 145.461 23.3633C145.077 23.9167 144.885 24.7435 144.885 25.8438ZM159.662 31.1953C158.113 31.1953 156.85 30.7201 155.873 29.7695C154.903 28.819 154.418 27.5527 154.418 25.9707V25.6973C154.418 24.6361 154.623 23.6888 155.033 22.8555C155.443 22.0156 156.023 21.3711 156.771 20.9219C157.527 20.4661 158.386 20.2383 159.35 20.2383C160.795 20.2383 161.931 20.694 162.758 21.6055C163.591 22.5169 164.008 23.8092 164.008 25.4824V26.6348H157.279C157.37 27.3249 157.644 27.8783 158.1 28.2949C158.562 28.7116 159.145 28.9199 159.848 28.9199C160.935 28.9199 161.785 28.526 162.396 27.7383L163.783 29.291C163.36 29.89 162.787 30.3587 162.064 30.6973C161.342 31.0293 160.541 31.1953 159.662 31.1953ZM159.34 22.5234C158.78 22.5234 158.324 22.7122 157.973 23.0898C157.628 23.4674 157.406 24.0078 157.309 24.7109H161.234V24.4863C161.221 23.8613 161.052 23.3796 160.727 23.041C160.401 22.696 159.939 22.5234 159.34 22.5234ZM169.117 20.4336L169.205 21.6543C169.96 20.7103 170.972 20.2383 172.242 20.2383C173.362 20.2383 174.195 20.5671 174.742 21.2246C175.289 21.8822 175.569 22.8652 175.582 24.1738V31H172.759V24.2422C172.759 23.6432 172.629 23.2103 172.369 22.9434C172.108 22.6699 171.675 22.5332 171.07 22.5332C170.276 22.5332 169.68 22.8717 169.283 23.5488V31H166.461V20.4336H169.117ZM183.025 28.9199C183.545 28.9199 183.969 28.7767 184.294 28.4902C184.62 28.2038 184.789 27.8229 184.802 27.3477H187.448C187.442 28.0638 187.247 28.7214 186.863 29.3203C186.478 29.9128 185.951 30.375 185.28 30.707C184.616 31.0326 183.881 31.1953 183.073 31.1953C181.563 31.1953 180.372 30.7168 179.499 29.7598C178.627 28.7962 178.191 27.4681 178.191 25.7754V25.5898C178.191 23.9622 178.624 22.6634 179.489 21.6934C180.355 20.7233 181.543 20.2383 183.054 20.2383C184.376 20.2383 185.433 20.6159 186.228 21.3711C187.029 22.1198 187.435 23.1191 187.448 24.3691H184.802C184.789 23.8223 184.62 23.3796 184.294 23.041C183.969 22.696 183.539 22.5234 183.005 22.5234C182.348 22.5234 181.849 22.7643 181.511 23.2461C181.179 23.7214 181.013 24.4961 181.013 25.5703V25.8633C181.013 26.9505 181.179 27.7318 181.511 28.207C181.843 28.6823 182.348 28.9199 183.025 28.9199ZM193.905 27.0059L195.858 20.4336H198.886L194.637 32.6406L194.403 33.1973C193.772 34.5775 192.73 35.2676 191.278 35.2676C190.868 35.2676 190.451 35.2057 190.028 35.082V32.9434L190.458 32.9531C190.992 32.9531 191.389 32.8717 191.649 32.709C191.916 32.5462 192.124 32.276 192.274 31.8984L192.606 31.0293L188.905 20.4336H191.942L193.905 27.0059Z" fill="#205BC8"/>
</svg>
